<?xml version="1.0" encoding="UTF-8" standalone="no"?>
<!-- Created with Inkscape (http://www.inkscape.org/) -->

<svg
   width="157.66365mm"
   height="65.328011mm"
   viewBox="0 0 157.66365 65.328011"
   version="1.1"
   id="svg1"
   inkscape:version="1.3.2 (091e20ef0f, 2023-11-25, custom)"
   sodipodi:docname="kir_inf.svg"
   xmlns:inkscape="http://www.inkscape.org/namespaces/inkscape"
   xmlns:sodipodi="http://sodipodi.sourceforge.net/DTD/sodipodi-0.dtd"
   xmlns="http://www.w3.org/2000/svg"
   xmlns:svg="http://www.w3.org/2000/svg">
  <sodipodi:namedview
     id="namedview1"
     pagecolor="#ffffff"
     bordercolor="#000000"
     borderopacity="0.25"
     inkscape:showpageshadow="2"
     inkscape:pageopacity="0.0"
     inkscape:pagecheckerboard="0"
     inkscape:deskcolor="#d1d1d1"
     inkscape:document-units="mm"
     inkscape:zoom="2.025849"
     inkscape:cx="436.60707"
     inkscape:cy="85.889916"
     inkscape:window-width="1920"
     inkscape:window-height="1029"
     inkscape:window-x="0"
     inkscape:window-y="27"
     inkscape:window-maximized="1"
     inkscape:current-layer="layer1" />
  <defs
     id="defs1">
    <marker
       style="overflow:visible"
       id="Triangle"
       refX="0"
       refY="0"
       orient="auto-start-reverse"
       inkscape:stockid="Triangle arrow"
       markerWidth="1"
       markerHeight="1"
       viewBox="0 0 1 1"
       inkscape:isstock="true"
       inkscape:collect="always"
       preserveAspectRatio="xMidYMid">
      <path
         transform="scale(0.5)"
         style="fill:context-stroke;fill-rule:evenodd;stroke:context-stroke;stroke-width:1pt"
         d="M 5.77,0 -2.88,5 V -5 Z"
         id="path135" />
    </marker>
  </defs>
  <g
     inkscape:label="Layer 1"
     inkscape:groupmode="layer"
     id="layer1"
     transform="translate(-12.7163, -88.303)">
    <path
       style="fill:none;stroke:#000000;stroke-width:0.264583;stroke-dasharray:0.26458299,0.79374898;stroke-dashoffset:0"
       id="path1"
       sodipodi:type="arc"
       sodipodi:cx="87.788765"
       sodipodi:cy="120.89001"
       sodipodi:rx="33.353771"
       sodipodi:ry="32.608471"
       sodipodi:start="0.034906585"
       sodipodi:end="3.3161256"
       sodipodi:arc-type="arc"
       d="M 121.12222,122.02803 A 33.353771,32.608471 0 0 1 102.0603,150.36264 33.353771,32.608471 0 0 1 67.561334,146.81768 33.353771,32.608471 0 0 1 54.941713,115.2276"
       sodipodi:open="true" />
    <path
       style="fill:none;stroke:#000000;stroke-width:0.264583;stroke-dasharray:none;stroke-dashoffset:0"
       id="path1-5"
       sodipodi:type="arc"
       sodipodi:cx="87.760063"
       sodipodi:cy="121.04421"
       sodipodi:rx="33.353771"
       sodipodi:ry="32.608471"
       sodipodi:start="3.3423055"
       sodipodi:end="0"
       sodipodi:arc-type="arc"
       d="m 55.075879,114.54313 a 33.353771,32.608471 0 0 1 36.025834,-25.94332 33.353771,32.608471 0 0 1 30.012117,32.4444"
       sodipodi:open="true" />
    <path
       style="fill:none;stroke:#000000;stroke-width:0.279;stroke-dasharray:none;stroke-dashoffset:0"
       d="m 54.135423,115.03152 c 14.147961,0.59499 23.360885,10.40805 38.714539,12.32403 18.174198,2.26797 18.318858,-2.34291 28.355178,-6.22675"
       id="path2"
       sodipodi:nodetypes="csc" />
    <ellipse
       style="fill:#000000;fill-opacity:1;stroke:#000000;stroke-width:0.264583"
       id="path3"
       cx="87.642471"
       cy="121.19888"
       rx="0.90274692"
       ry="1.0519718" />
    <path
       style="fill:none;fill-opacity:1;stroke:#000000;stroke-width:0.279;stroke-dasharray:0.279, 0.837;stroke-dashoffset:0"
       d="m 120.83446,122.67714 c 0,0 -0.4506,-4.83323 16.01146,-9.24422 16.46206,-4.411 33.53399,1.639 33.53399,1.639"
       id="path5" />
    <path
       style="fill:none;fill-opacity:1;stroke:#000000;stroke-width:0.279;stroke-dasharray:0.279, 0.837;stroke-dashoffset:0"
       d="m 54.895302,115.45863 c 0,0 -14.530812,-6.09876 -25.613623,1.99853 -7.330156,5.35554 -16.565414,3.85709 -16.565414,3.85709"
       id="path6"
       sodipodi:nodetypes="csc" />
    <path
       style="fill:none;fill-opacity:1;stroke:#000000;stroke-width:0.281415;stroke-dasharray:none;stroke-dashoffset:0;marker-end:url(#Triangle)"
       d="M 87.579594,121.20885 61.287198,102.14274"
       id="path7" />
    <text
       xml:space="preserve"
       style="font-size:7.04628px;font-family:'Noto Sans';-inkscape-font-specification:'Noto Sans';fill:#000000;fill-opacity:1;stroke:#000000;stroke-width:0.619185;stroke-dasharray:none;stroke-dashoffset:0"
       x="72.841133"
       y="106.0842"
       id="text7"><tspan
         sodipodi:role="line"
         id="tspan7"
         style="stroke-width:0.619185;fill:#000000;fill-opacity:1"
         x="72.841133"
         y="106.0842">R</tspan></text>
    <text
       xml:space="preserve"
       style="font-size:6.31964px;font-family:'Noto Sans';-inkscape-font-specification:'Noto Sans';fill:#000000;fill-opacity:1;stroke:#000000;stroke-width:0.555333;stroke-dasharray:none;stroke-dashoffset:0"
       x="152.24289"
       y="109.34509"
       id="text8"><tspan
         sodipodi:role="line"
         id="tspan8"
         style="stroke-width:0.555333;fill:#000000;fill-opacity:1"
         x="152.24289"
         y="109.34509">B</tspan></text>
    <text
       xml:space="preserve"
       style="font-size:3.175px;font-family:'Noto Sans';-inkscape-font-specification:'Noto Sans';fill:none;stroke:#000000;stroke-width:0.279"
       x="96.752594"
       y="134.36328"
       id="text1"><tspan
         sodipodi:role="line"
         id="tspan1"
         style="stroke-width:0.279" /></text>
    <text
       xml:space="preserve"
       style="font-size:5.7287px;font-family:'Noto Sans';-inkscape-font-specification:'Noto Sans';fill:#000000;fill-opacity:1;stroke:#000000;stroke-width:0.503403"
       x="93.357239"
       y="123.25609"
       id="text2"
       transform="scale(1.1016588,0.90772206)"><tspan
         sodipodi:role="line"
         id="tspan2"
         style="fill:#000000;fill-opacity:1;stroke-width:0.503403"
         x="93.357239"
         y="123.25609">D</tspan></text>
    <text
       xml:space="preserve"
       style="font-size:5.33956px;font-family:'Noto Sans';-inkscape-font-specification:'Noto Sans';baseline-shift:baseline;fill:#000000;fill-opacity:1;stroke:#000000;stroke-width:0.223996"
       x="83.814857"
       y="95.778351"
       id="text2-5-9"
       transform="scale(1.0115262,0.98860514)"><tspan
         sodipodi:role="line"
         id="tspan2-3-3"
         style="baseline-shift:baseline;fill:#000000;fill-opacity:1;stroke-width:0.223996"
         x="83.814857"
         y="95.778351">D<tspan
   style="font-size:65%;baseline-shift:super"
   id="tspan5">-</tspan></tspan></text>
    <text
       xml:space="preserve"
       style="font-size:5.33956px;font-family:'Noto Sans';-inkscape-font-specification:'Noto Sans';baseline-shift:baseline;fill:#000000;fill-opacity:1;stroke:#000000;stroke-width:0.223996"
       x="97.092316"
       y="135.23628"
       id="use5"
       transform="scale(1.0115262,0.98860514)"><tspan
         sodipodi:role="line"
         id="tspan9"
         style="baseline-shift:baseline;fill:#000000;fill-opacity:1;stroke-width:0.223996"
         x="97.092316"
         y="135.23628">D<tspan
   style="font-size:3.47071px;baseline-shift:super;stroke-width:0.223996"
   id="tspan6">+</tspan></tspan></text>
    <g
       inkscape:label=""
       transform="translate(88.811091,116.02605)"
       id="g8">
      <g
         fill="#000000"
         fill-opacity="1"
         id="g3"
         transform="matrix(0.352778,0,0,0.352778,-0.807817,-0.697221)">
        <g
           id="use2"
           transform="translate(1.993,9.4820004)">
          <path
             d="m 0.875,-0.59375 c -0.03125,0.15625 -0.09375,0.390625 -0.09375,0.4375 0,0.171875 0.140625,0.265625 0.296875,0.265625 0.125,0 0.296875,-0.078125 0.375,-0.28125 C 1.46875,-0.203125 1.796875,-1.5625 1.84375,-1.75 c 0.078125,-0.328125 0.265625,-1.015625 0.3125,-1.296875 0.046875,-0.125 0.328125,-0.59375 0.5625,-0.8125 0.078125,-0.0625 0.375,-0.328125 0.796875,-0.328125 0.265625,0 0.40625,0.125 0.421875,0.125 -0.296875,0.046875 -0.515625,0.28125 -0.515625,0.546875 0,0.15625 0.109375,0.34375 0.375,0.34375 0.265625,0 0.546875,-0.234375 0.546875,-0.59375 0,-0.34375 -0.3125,-0.640625 -0.828125,-0.640625 C 2.875,-4.40625 2.4375,-3.921875 2.25,-3.640625 2.15625,-4.09375 1.796875,-4.40625 1.328125,-4.40625 0.875,-4.40625 0.6875,-4.015625 0.59375,-3.84375 0.421875,-3.5 0.296875,-2.90625 0.296875,-2.875 c 0,0.109375 0.09375,0.109375 0.109375,0.109375 0.109375,0 0.109375,-0.015625 0.171875,-0.234375 0.171875,-0.703125 0.375,-1.1875 0.734375,-1.1875 0.15625,0 0.296875,0.078125 0.296875,0.453125 0,0.21875 -0.03125,0.328125 -0.15625,0.84375 z m 0,0"
             id="path4" />
        </g>
      </g>
      <g
         fill="#000000"
         fill-opacity="1"
         id="g4"
         transform="matrix(0.352778,0,0,0.352778,-0.807817,-0.697221)">
        <g
           id="use3"
           transform="translate(6.7639999,5.8670001)">
          <path
             d="m 2.015625,-3.296875 c 0.0625,-0.109375 0.0625,-0.171875 0.0625,-0.21875 0,-0.21875 -0.1875,-0.375 -0.40625,-0.375 -0.265625,0 -0.34375,0.21875 -0.375,0.328125 L 0.375,-0.546875 c -0.015625,0.015625 -0.046875,0.09375 -0.046875,0.109375 0,0.078125 0.21875,0.15625 0.28125,0.15625 0.046875,0 0.046875,-0.015625 0.09375,-0.125 z m 0,0"
             id="path8" />
        </g>
      </g>
    </g>
  </g>
</svg>
